/* XPM */
static char * bitcoin64_xpm[] = {
"64 64 65 1",
" 	c None",
".	c #E5A438",
"+	c #FEAB31",
"@	c #F89B2B",
"#	c #FFAC2A",
"$	c #FFB42C",
"%	c #DD9D33",
"&	c #E3A335",
"*	c #F3A529",
"=	c #FFA225",
"-	c #F89825",
";	c #F99524",
">	c #F79625",
",	c #E19F30",
"'	c #A58132",
")	c #F3AB31",
"!	c #FFAB26",
"~	c #F79825",
"{	c #F4AB2A",
"]	c #A9812B",
"^	c #FFBF37",
"/	c #FDB432",
"(	c #FFC03E",
"_	c #FE9A1D",
":	c #DFAF41",
"<	c #FFBB2D",
"[	c #F69B2C",
"}	c #DFA731",
"|	c #D7A43D",
"1	c #F99E32",
"2	c #D5992B",
"3	c #D69F3C",
"4	c #FFB325",
"5	c #F9A33B",
"6	c #D19329",
"7	c #DCA63C",
"8	c #FFC12F",
"9	c #F7A037",
"0	c #FFC230",
"a	c #9A7026",
"b	c #90651A",
"c	c #E69A2C",
"d	c #D48D23",
"e	c #FAA135",
"f	c #CC8E2A",
"g	c #B1781E",
"h	c #FEA429",
"i	c #E29425",
"j	c #FAA642",
"k	c #EA9926",
"l	c #E79925",
"m	c #8F6319",
"n	c #EEA328",
"o	c #BB8621",
"p	c #B1811F",
"q	c #AF7C1E",
"r	c #B08320",
"s	c #AC801F",
"t	c #C39223",
"u	c #BD8E22",
"v	c #D19C25",
"w	c #CE9925",
"x	c #916C1A",
"y	c #8F6A1A",
"z	c #CA8E22",
"                                                                ",
"                                                                ",
"                                                                ",
"                                                                ",
"                         .+@##$$$$##@+%                         ",
"                      &*#=--;;>;;>;;-==#*,                      ",
"                   ')!=;>~------------~>-=!{]                   ",
"                  ^!-;----------------@@-~;-!/                  ",
"                (=_;------------------@@@---;-!/                ",
"               #_;-----------------@@@@@@-----;=#               ",
"             :<;>----------------@@@@[[@@@----->;<}             ",
"            |!;~---------------@@@@@[11[@@------~;#2            ",
"           34;---------------[555555511@@@@-------;<6           ",
"          74;--------------@555555555551@@@--------;$2          ",
"          8;~------------@@55555555555559@@--------~;0          ",
"         /;~------------55555555555555555@@@-------->-$         ",
"        /!>----------@55555555555555555555@@@-------->#*        ",
"        <;----------@5555555555555555555555@@---------;<        ",
"       {-~--------@@55555555555555555555555[@@--------~=$       ",
"      a<;-------@@@5555555555555555555555555@@---------;<b      ",
"      /-~-----@@@@@5555555555555555555555555@@@--------~@#      ",
"      <;----@@@@@@55555555555555555555555555[@@---------;<      ",
"     c!>---@@@@[11555555555555555555555555559@@@-------->#d     ",
"     #;-@@@@@[[1115555555555555555555555555551@@----------$     ",
"     $;@@@@@[111e95555555555555555555555555555[@@--------;<     ",
"    f#>-@@@11eee5555555555555555555555555555555@@@------->$g    ",
"    ch--@@@[1e5555555555555555555555555555555555@@--------hi    ",
"    h----@@@11e55j555555555555555555555555555555@@---------h    ",
"    #;----@@[1e95j5555555555555555555555555555555@@-------;$    ",
"    #;----@@@11e555555555555555555555555555555555@@@------;$    ",
"    $;-----@@[11555555555555555555555555555555555@@@-------$    ",
"    <;-----@@@15555555555555555555555555555555555@@@-------$    ",
"    $;------@@@55555555555555555555555555555555551@@@------$    ",
"    <>------@@5555555555555555555555555555555555511@@@-----$    ",
"    #;-------@55555555555555555555555555555555555e1[@@----;$    ",
"    h;-------@55555555555555555555555555555555555e11@@@---;$    ",
"    h---------555555555555555555555555555555555555e1@@@@---h    ",
"    kh--------55555555555555555555555555555555555ee11@@@--#i    ",
"    d#>-------5555555555555555555555555555555559ee111@@@@~$g    ",
"     $;-------55555555555555555555555555555555ee11@@@@@@@;<     ",
"     #--------55555555555555555555555555555555111[@@@@----#     ",
"     l#>-------55555555555555555555555555555551@@@@@---->#d     ",
"      <;-------5555555555555555555555555555555@@@@@-----;<      ",
"      #@~-------55555555555555555555555555555@@@@------~=#      ",
"      b<;-------55555555555555555555555555555@@--------;<m      ",
"       $@~-------555555555555555555555555555@@--------~=$       ",
"        <;--------5555555555555555555555555-----------;<        ",
"        *#>--------55555555555555555555555----------->#n        ",
"         <@>--------55555555555555555555------------>@<         ",
"          <;~--------555555555555555555------------~;<          ",
"          o<;~--------555555555555555-------------~;<o          ",
"           p8;~-------@@55555555555--------------~;8q           ",
"            r<;>------@@@1[@@@@@---------------->;<s            ",
"             t<->------@@[@@@@----------------->@<u             ",
"               <$;~----@@@@@-----------------~;$<               ",
"                v8=>----@@@----------------->h<w                ",
"                  {<=;>-@---------------->;=<{                  ",
"                   x{<#->>------------>>-#<*y                   ",
"                      z#<$h--;;--;;;-h$<#z                      ",
"                         qih$$$$$$$$hiq                         ",
"                                                                ",
"                                                                ",
"                                                                ",
"                                                                "};
