/* XPM */
static char * bitcoin16_xpm[] = {
"16 16 84 1",
" 	c None",
".	c #DF953E",
"+	c #DF943B",
"@	c #E2983F",
"#	c #F7A43F",
"$	c #F9A137",
"%	c #F9A033",
"&	c #F79F35",
"*	c #E29335",
"=	c #D8923E",
"-	c #F9A541",
";	c #F9A036",
">	c #F89927",
",	c #F4931F",
"'	c #F59422",
")	c #F89A2B",
"!	c #F99C2E",
"~	c #F89E32",
"{	c #D78B2D",
"]	c #D8913C",
"^	c #F9A23A",
"/	c #F89A28",
"(	c #F9A33B",
"_	c #F69A2D",
":	c #F89925",
"<	c #F89929",
"[	c #D78625",
"}	c #F89B2C",
"|	c #F79726",
"1	c #F89926",
"2	c #F79623",
"3	c #E49639",
"4	c #F9A135",
"5	c #F89824",
"6	c #F89825",
"7	c #E28B23",
"8	c #F8A139",
"9	c #F99E31",
"0	c #F89723",
"a	c #F59625",
"b	c #DF8F2F",
"c	c #F89D2E",
"d	c #F99825",
"e	c #F99C2D",
"f	c #D98620",
"g	c #DF8D2A",
"h	c #F89A2A",
"i	c #F89724",
"j	c #F9A136",
"k	c #F99927",
"l	c #F39523",
"m	c #D88520",
"n	c #F69726",
"o	c #F79624",
"p	c #F9A035",
"q	c #F79B2C",
"r	c #EE9123",
"s	c #E38B23",
"t	c #F79725",
"u	c #F99A29",
"v	c #F19525",
"w	c #D98521",
"x	c #F69725",
"y	c #F49623",
"z	c #ED9122",
"A	c #D3821F",
"B	c #F49624",
"C	c #F79724",
"D	c #ED9123",
"E	c #CB7D1E",
"F	c #D1801F",
"G	c #F09324",
"H	c #F49725",
"I	c #F99B29",
"J	c #F89A29",
"K	c #F19424",
"L	c #EB9023",
"M	c #CA7C1E",
"N	c #D7831F",
"O	c #EE9223",
"P	c #F19423",
"Q	c #EA9023",
"R	c #D1811E",
"S	c #D0801F",
"       .+       ",
"     @#$%&*     ",
"   =-;>,')!~{   ",
"  ]^/(((((_:<[  ",
"  ^}(((((((|12  ",
" 34(((((((((567 ",
" 89(((((((((01a ",
"bcd(((((((((e5af",
"ghi(((((((((jklm",
" no(((((((((pqr ",
" st(((((((((uvw ",
"  x|(((((((!yz  ",
"  ABC(((((1BDE  ",
"   FGHIuJaKLM   ",
"     NOPGQA     ",
"       RS       "};
