/* XPM */
static char * bitcoin32_xpm[] = {
"32 32 33 1",
" 	c None",
".	c #DC9641",
"+	c #E2963B",
"@	c #DD943E",
"#	c #D79341",
"$	c #EA9D42",
"%	c #F6A13C",
"&	c #F9A036",
"*	c #F99E32",
"=	c #F69D33",
"-	c #EC9A37",
";	c #D68F39",
">	c #E39A43",
",	c #F9A643",
"'	c #F9A33B",
")	c #F99B2B",
"!	c #F89825",
"~	c #F89724",
"{	c #F79827",
"]	c #F59A2D",
"^	c #DC8D2C",
"/	c #E6983A",
"(	c #E28B23",
"_	c #F59624",
":	c #D98F36",
"<	c #D48221",
"[	c #E98F24",
"}	c #E18F2D",
"|	c #D98621",
"1	c #ED9124",
"2	c #CC7D1D",
"3	c #D5831F",
"4	c #DC8820",
"                                ",
"              .++@              ",
"           #$%&***=-;           ",
"         >,'*)!!!~{)*&+         ",
"        ,&)!!!!~!{)){{)*        ",
"      .']!!!'''''''*)!!{)^      ",
"     @')!!'''''''''''{!!{{^     ",
"     ')!!'''''''''''''!!!{!     ",
"    ']!!'''''''''''''''!!!{~    ",
"   /&!~'''''''''''''''''!!!!(   ",
"   ')!{'''''''''''''''''!!!{_   ",
"  :&{)'''''''''''''''''''!!!~<  ",
"  -*))'''''''''''''''''''!!!~[  ",
"  ={))''''''''''''''''''''~!!_  ",
" ^]!!)''''''''''''''''''''!!!_< ",
" })!!!''''''''''''''''''''!!!_| ",
" })!!!'''''''''''''''''''')!!_| ",
" ^)!!!''''''''''''''''''''){~_< ",
"  {!!!''''''''''''''''''''*)_1  ",
"  1~!!''''''''''''''''''''))_(  ",
"  |!!!!''''''''''''''''''){!_2  ",
"   !~!!''''''''''''''''''!!_1   ",
"   [_!!!''''''''''''''''!~!_|   ",
"    __!!!''''''''''''''~!!_1    ",
"     _~!!!''''''''''''!!!_1     ",
"     |_~!!!)''''''''!!!!_13     ",
"      3__!!{))){!!!!!!!_12      ",
"        1_~{))!!~!!!!__[        ",
"         31_{~!!!!__11<         ",
"           2(1____[42           ",
"              2<<2              ",
"                                "};
